<?xml version="1.0" encoding="utf-8"?>
<!-- Generator: Adobe Illustrator 23.0.3, SVG Export Plug-In . SVG Version: 6.00 Build 0)  -->
<svg version="1.1" id="Layer_1" xmlns="http://www.w3.org/2000/svg" xmlns:xlink="http://www.w3.org/1999/xlink" x="0px" y="0px"
	 viewBox="0 0 359.1 329.3" style="enable-background:new 0 0 359.1 329.3;" xml:space="preserve">
<style type="text/css">
	.st0{fill:#231F20;stroke:#FFCC66;stroke-width:4.85;stroke-miterlimit:10;}
</style>
<title>brain-icon</title>
<path class="st0" d="M173.8,224c0,0,21.3,39.7,36.4,53.3s19.7,47.1,19.7,47.1l28.4,2.2c0,0-3.2-12.3-8.8-31.4s8.8-18.9,8.8-18.9V224
	l-71.6-66.1l-19.1,45.3L173.8,224z"/>
<path class="st0" d="M191.2,218.4c0,0,20.6,6.6,21.7,24s8.3,39.8,45.3,33.8s73.2-42.1,63.5-63.2l-67.6-80.4L191.2,218.4z"/>
<path class="st0" d="M99.5,174.4c0,0-18.9,20.5-43.9-1.3c-9.6,9.6-31.2-1.3-34-14.8c-8.9-1.8-23.2-15.4-14.5-31.7
	c-4.2-7.5-13.3-33.8,15.9-50.8c0-9.8,2-28.9,30.6-33.2c2.8-9.9,19.2-34.8,53.7-23.7c4.6-7.1,31.5-24.7,58.2-7.1
	c8.8-5.5,39-20.2,70.6,4.6c8.5-2.6,32.5-3.2,40.3,18.5c12.7-2.9,44.2,8.5,49.1,38c10.1-3.2,25,28.6,17.6,40.3
	c9.4,3,15.5,23.9,5.6,33.9c10.4,3.9,11.1,22.4,0,28.6c3.9,8.4,8.1,28.3-16.3,35.8s-32.5-11.7-32.5-11.7s-14.8,7.3-28-5.9
	c-19.2,14-35.8,27-69.9,16.3c-8.9,8.9-25.4,19.5-42.6,7.5c-7.2,7.1-30.2,13-35.8-10.1C113.2,207.5,91.7,193.5,99.5,174.4z"/>
</svg>
