<svg id="Layer_1" data-name="Layer 1" xmlns="http://www.w3.org/2000/svg" viewBox="0 0 359.09 329.33"><defs><style>.cls-1{fill:#231f20;stroke:#fff;stroke-miterlimit:10;stroke-width:4.85px;}</style></defs><title>brain-icon</title><path class="cls-1" d="M182.38,241.87s21.31,39.73,36.36,53.34,19.7,47.1,19.7,47.1l28.37,2.24s-3.22-12.33-8.83-31.39,8.83-18.94,8.83-18.94V241.87l-71.55-66.13L176.17,221Z" transform="translate(-8.56 -17.91)"/><path class="cls-1" d="M199.76,236.36s20.57,6.55,21.72,24,8.28,39.81,45.33,33.82,73.17-42.1,63.51-63.16l-67.57-80.41Z" transform="translate(-8.56 -17.91)"/><path class="cls-1" d="M108.06,192.27S89.2,212.75,64.16,191c-9.59,9.59-31.22-1.3-34-14.8-8.94-1.79-23.25-15.44-14.47-31.7C11.48,137,2.38,110.65,31.64,93.74c0-9.75,2-28.94,30.57-33.16,2.76-9.92,19.18-34.8,53.65-23.74,4.55-7.15,31.54-24.71,58.2-7.15,8.78-5.53,39-20.16,70.56,4.55,8.46-2.6,32.52-3.25,40.33,18.53,12.68-2.92,44.22,8.46,49.09,38,10.08-3.25,25,28.61,17.56,40.32C361,134.06,367.11,155,357.17,165c10.37,3.91,11.1,22.44,0,28.62,3.86,8.45,8.09,28.29-16.3,35.77s-32.51-11.71-32.51-11.71-14.8,7.32-28-5.85c-19.18,14-35.77,27-69.91,16.26-8.94,8.94-25.36,19.51-42.59,7.48-7.16,7.15-30.24,13-35.77-10.08C121.71,225.44,100.25,211.45,108.06,192.27Z" transform="translate(-8.56 -17.91)"/></svg>