<svg id="Layer_1" data-name="Layer 1" xmlns="http://www.w3.org/2000/svg" viewBox="0 0 364.96 265.12"><defs><style>.cls-1{fill:#231f20;}</style></defs><title>brainstorm-icon</title><rect class="cls-1" x="249.51" y="41.01" width="21.33" height="178.87" transform="translate(349.7 359.45) rotate(-135)"/><polygon class="cls-1" points="164.81 176.41 199.25 157.05 184.17 141.97 164.81 176.41"/><path class="cls-1" d="M139.54,205.17c-8.63.28-15-7.08-16.62-15.12-1.89-9.27,3.52-18.27,10-24.49,16.43-15.86,41.52-17.56,61.22-27.67,16.94-8.68,30-23.75,29.66-43.57-.31-16.52-9.13-33.34-23.7-41.6C180.51,41.65,157,49,138.65,59,128.6,64.43,119.12,70.9,108.89,76,98,81.51,86.47,84,74.37,85.33c-22.16,2.37-45.64,3.78-61.63,21.44-13.6,15-14.87,36.47,1,50.39,14.29,12.5,35.46,14.65,48.25,29,11.71,13.12.82,25.49-10.15,33.84-11.6,8.83-25.52,17.22-30.11,32-6.18,19.83,10.06,38.69,28,44.63,24.16,8,48.78-3.56,72.66-6.56,12-1.5,23.37-.35,34.12,5.35,8.84,4.67,17,10.6,26.34,14.24,21.37,8.27,39.16-3.71,54.18-18.1,7.91-7.57,16.06-16.1,26.79-19.51,10.27-3.26,18.32,1,25.76,7.89,6.83,6.29,13.25,13.34,21.94,17.07a35.62,35.62,0,0,0,26.09.49,44.41,44.41,0,0,0,29.47-42.65c-.42-20.47-12.73-38-28.82-49.63-12.11-8.76-35.63-20.74-26-39.29,3.75-7.25,11.94-13.28,20.43-11.91,7.76,1.25,11.11-10.64,3.28-11.9-18.32-3-36,10.94-38.07,29.44-2.14,19.59,15.44,31.47,29.56,41.11,15.5,10.59,29,26.51,27.17,46.56-1.46,16.06-17.83,31.62-34.64,27.67-9-2.1-15.2-9.73-21.67-15.69-7-6.42-14.67-11.7-24.36-12.61-22.6-2.12-37.91,18.2-53.27,31.2-7.3,6.18-16.33,11.65-26.3,10.29-9.45-1.29-17.72-7.24-25.73-12-9.13-5.4-18.41-9.53-29.06-10.67-11.71-1.26-23.59.88-35,3.42-20.74,4.62-47.76,13.1-64.82-4.61-5.73-5.95-9-14.37-5.71-22.38,2.54-6.22,8-11,13.11-15,10.75-8.6,24.36-15.86,30-29.15,7.48-17.66-4.63-33.51-19.3-42.41-13.6-8.26-38-12.33-43.07-29.84-2.64-9.1,2.29-17.82,8.69-24,7.92-7.69,18-11.2,28.66-13.08,11.5-2,23.23-2.34,34.75-4.24A102.91,102.91,0,0,0,119.65,84.3c18.92-10.32,38.4-26.39,61.26-24.67,16.24,1.22,28.09,14.81,30.22,30.52,2.66,19.52-11.77,32.3-28.3,39.48-19.88,8.65-42.48,11.56-58.68,27.21-13.72,13.24-19.21,34.1-6.55,50,5.37,6.73,13.24,10.94,21.94,10.66,7.92-.25,8-12.59,0-12.34Z" transform="translate(-2.2 -47.2)"/></svg>