<svg id="Layer_1" data-name="Layer 1" xmlns="http://www.w3.org/2000/svg" viewBox="0 0 226.47 341.15"><title>call-icon</title><g id="Shape_157" data-name="Shape 157"><path d="M244.24,272.91c-.64,1.5-.14,3,.09,4.39a37,37,0,0,0,4.41,11.79,100.32,100.32,0,0,0,5.67,8.69,80.1,80.1,0,0,0,11.19,12.37c2.17,2,4.58,3.82,6.87,5.72a54.25,54.25,0,0,0,10.37,6.68,32.12,32.12,0,0,0,10.52,3.66c1.38.16,2.73.64,4.14.2a.42.42,0,0,1,.39.18.5.5,0,0,1-.08.46c-.42.4-.9.74-1.31,1.14-5,5-9.87,10-14.95,14.87a40.63,40.63,0,0,1-6.91,5.16,29.38,29.38,0,0,1-9.33,3.63c-.58.12-1.17.23-1.75.32-1.13.17-2.26.35-3.39.47a45.82,45.82,0,0,1-4.81.38c-2.76,0-5.54-.13-8.29-.41-2.1-.22-4.18-.76-6.27-1.16s-4.06-.72-6.06-1.21c-1.79-.44-3.54-1.08-5.31-1.6a109.91,109.91,0,0,1-15.18-5.86c-4.06-1.88-8.13-3.78-12.08-5.88-4.23-2.25-8.4-4.61-12.45-7.17-4.83-3.06-9.56-6.29-14.22-9.61-3.62-2.58-7.08-5.38-10.56-8.14q-4.06-3.23-8-6.62c-3.12-2.69-6.16-5.47-9.23-8.21-.78-.7-1.56-1.39-2.31-2.12-2.7-2.61-5.43-5.21-8.07-7.88-2.42-2.45-4.79-5-7.11-7.5s-4.8-5.35-7.09-8.11-4.52-5.6-6.69-8.46c-2.7-3.55-5.43-7.07-7.93-10.75-3.26-4.79-6.47-9.62-9.41-14.6-2.73-4.64-5.17-9.45-7.59-14.26a129.09,129.09,0,0,1-7.38-17.74c-.81-2.48-1.61-5-2.38-7.46-.54-1.74-1.12-3.47-1.53-5.24-.5-2.19-.87-4.42-1.26-6.64q-.54-3.07-1-6.15a20.7,20.7,0,0,1-.2-2.61c0-3-.15-6,0-9,.17-2.6.69-5.19,1.11-7.78a30,30,0,0,1,3.84-10.24,27.06,27.06,0,0,1,3.57-5.07c5.52-5.82,11.17-11.51,16.78-17.24a3,3,0,0,1,.57-.55.64.64,0,0,1,.52,0,.47.47,0,0,1,.21.39c-.64,2.72.24,5.28,1.06,7.76a54.39,54.39,0,0,0,8,15,93,93,0,0,0,15.72,16.92,68.68,68.68,0,0,0,10.36,7.46,75.89,75.89,0,0,0,9.49,4.44,19.54,19.54,0,0,0,8.16,1.46c.3,0,.61.26.91.41-.21.19-.41.38-.63.56a12.09,12.09,0,0,0-1,.78c-4.84,4.82-9.72,9.6-14.48,14.51a15.43,15.43,0,0,0-4.68,9.06,24.34,24.34,0,0,0,.51,9.64c.58,1.89.88,3.87,1.43,5.78a41.65,41.65,0,0,0,1.74,4.84c1,2.39,2.07,4.8,3.32,7.08q2.42,4.39,5.2,8.59c1.95,2.93,4,5.78,6.19,8.57,1.57,2,3.31,4,5,5.87,1.59,1.75,3.26,3.44,4.92,5.13s3.13,3.33,4.85,4.82q4.42,3.85,9.05,7.46c2.53,2,5.13,3.86,7.81,5.63a74.46,74.46,0,0,0,14.08,7.54,72.54,72.54,0,0,0,7.34,2.69,36.8,36.8,0,0,0,10.63,1.29,19.4,19.4,0,0,0,6.65-1.28,4,4,0,0,0,1.31-.91c2.22-2.18,4.41-4.39,6.61-6.59.89-.89,1.79-1.76,2.66-2.66,1.37-1.42,2.72-2.86,4.09-4.28.82-.85,1.66-1.7,2.53-2.5A1.87,1.87,0,0,1,244.24,272.91Z" transform="translate(-77.71 -11.86)"/><path d="M158.79,155c1.14,2.19,2.39,4.26,3.29,6.47a32.92,32.92,0,0,1,2.1,7c.45,2.78.37,5.67-1.93,7.85a6.53,6.53,0,0,1-4.19,1.64,20,20,0,0,1-8-1.25,51.64,51.64,0,0,1-11.89-6.11,57,57,0,0,1-8.34-6.53c-2.16-2.14-4.57-4-6.6-6.3-2.56-2.84-4.9-5.89-7.22-8.93a53.56,53.56,0,0,1-6-10.22,32.43,32.43,0,0,1-2.34-7.39,12,12,0,0,1,.41-6.56,5.54,5.54,0,0,1,4.45-3.38,24.28,24.28,0,0,1,5.39,0,29.82,29.82,0,0,1,5.54,1.72,41.51,41.51,0,0,1,9.45,5c2.68,1.92,5.31,3.9,7.87,6a66.36,66.36,0,0,1,5.72,5.14c2.1,2.15,3.9,4.6,6.06,6.69a14.45,14.45,0,0,1,1.9,2.59c1.42,2.13,2.89,4.24,4.34,6.36C158.76,154.83,158.74,154.92,158.79,155Z" transform="translate(-77.71 -11.86)"/><path d="M252.25,266.7a22.46,22.46,0,0,1,3.32-.17,20.5,20.5,0,0,1,4.34.8,68.7,68.7,0,0,1,6.44,2.45,61.29,61.29,0,0,1,10.7,6.54,49.15,49.15,0,0,1,4.27,3.64c1.77,1.59,3.57,3.16,5.23,4.86a89.36,89.36,0,0,1,8.55,10.07,60.64,60.64,0,0,1,6.19,10.27c.9,1.94,1.32,4.09,2.11,6.08a13.63,13.63,0,0,1,.76,5.65c-.11,3.13-1.74,5.51-4.89,6.26a13.71,13.71,0,0,1-7.1-.38,39,39,0,0,1-6.77-2.6,85.48,85.48,0,0,1-8.92-5.34,72.88,72.88,0,0,1-7.1-5.67c-2.34-2.08-4.6-4.25-6.73-6.54a74.44,74.44,0,0,1-5.21-6.39c-2-2.67-3.87-5.39-5.6-8.22a36.77,36.77,0,0,1-2.75-5.81,29.36,29.36,0,0,1-1.48-4.95c-.52-2.58-.8-5.24.51-7.66A5.31,5.31,0,0,1,252.25,266.7Z" transform="translate(-77.71 -11.86)"/><path d="M177.29,103.61c-.65,1.26-1.21,2.48-1.85,3.68q-3.66,6.88-7.36,13.76c-.09.17-.3.27-.45.41-.11-.21-.36-.45-.32-.63.23-1,.51-2,.78-3,.53-1.94,1-3.88,1.6-5.81.65-2.21,1.38-4.4,2.06-6.6.51-1.68,1-3.38,1.52-5,1.09-3.33,2.22-6.64,3.33-10q1-3.06,2-6.12c.39-1.18.67-1.34,1.85-1.2,1.46.18,2.94.27,4.41.41,2.7.26,5.41.54,8.12.79,1.6.15,3.21.23,4.81.42,1.88.21,3.76.54,5.64.77,1.33.17,2.68.24,4,.42,2.29.29,4.58.6,6.85,1,1.08.18,1.54,0,1.92-1.26.73-2.34,1.46-4.69,2.22-7q2.83-8.72,5.7-17.43c1-3.12,2.11-6.22,3.16-9.34.43-1.28.85-2.56,1.24-3.86.24-.78.67-1.22,1.53-1.07l3.61.66c1.42.25,2.85.47,4.27.74,1.78.34,3.55.73,5.32,1.09,2.17.43,4.35.85,6.52,1.3,1.22.25,2.44.52,3.65.79,2.37.53,4.74,1,7.1,1.59,2.06.47,4.11,1,6.16,1.45,2.62.64,5.24,1.28,7.86,1.94,1.38.34,2.75.7,4.12,1.09a21.4,21.4,0,0,1,2.09.71c.13.06.17.35.25.54a2.25,2.25,0,0,1-.68.19c-.72-.08-1.42-.3-2.14-.33-2.26-.11-4.52-.16-6.78-.22-3-.07-6.05-.08-9.07-.21-3.23-.14-6.46-.37-9.7-.59-2.77-.18-5.53-.38-8.3-.59-2.41-.19-4.81-.4-7.22-.6-2.15-.17-2.1-.16-2.63,2-.45,1.86-1.06,3.67-1.57,5.52-.68,2.47-1.3,5-2,7.42-.5,1.78-1.1,3.53-1.62,5.3-.67,2.24-1.27,4.51-2,6.75s-1.43,4.31-2.12,6.48c-.51,1.64-1,3.31-1.46,5-.18.62-.39,1.23-.59,1.85a1.44,1.44,0,0,1-1.79,1.11c-2.72-.47-5.45-.92-8.17-1.4-2.9-.51-5.79-1.08-8.7-1.58-1.53-.26-3.09-.35-4.62-.62s-3.28-.71-4.94-1c-1.41-.28-2.84-.48-4.26-.75s-2.57-.53-3.85-.79c-.71-.14-1.42-.25-2.12-.4-1.17-.26-1.54.52-1.95,1.37q-2.1,4.41-4.27,8.77C178.16,102.11,177.74,102.83,177.29,103.61Z" transform="translate(-77.71 -11.86)"/><path d="M242.1,122.65c2.41.67,4.72,1.33,7,2,1.6.46,3.21.88,4.79,1.4,2.34.75,4.66,1.56,7,2.37,3.1,1.09,6.18,2.21,9.28,3.3,1.82.64,3.66,1.24,5.48,1.89.26.1.45.4.67.61-.27.13-.54.37-.8.35-2.87-.17-5.74-.37-8.61-.58-1.57-.11-3.14-.22-4.7-.4-2.52-.3-5-.66-7.55-1-1.67-.22-3.35-.37-5-.61-2.63-.37-5.24-.8-7.86-1.19-1.85-.27-3.69-.54-5.54-.79a1.53,1.53,0,0,0-1.72,1c-2.22,4.33-4.44,8.65-6.76,12.92s-4.71,8.53-7.16,12.74c-2.23,3.83-4.62,7.57-6.85,11.4-.51.88-.85,1.73-2.06,1.27-.83-.31-1.63-.7-2.45-1.05-2.91-1.22-5.84-2.39-8.73-3.66-2.58-1.13-5.12-2.35-7.67-3.57-4.26-2-8.52-4.08-12.76-6.18-2.5-1.24-5-2.58-7.43-3.9-.22-.12-.36-.4-.54-.61.3-.08.62-.28.89-.23,1.3.27,2.59.64,3.89.91,1.57.32,3.15.55,4.72.87s2.84.65,4.26,1c2.74.66,5.5,1.28,8.22,2,2.51.65,5,1.42,7.48,2.13,2,.55,3.91,1.14,5.89,1.61a1.46,1.46,0,0,0,1.9-.89q3.25-6.67,6.79-13.2c2.41-4.45,4.95-8.83,7.44-13.23q2.76-4.87,5.56-9.74c.18-.32.38-.63.55-1,.78-1.49,2-.75,3-.52,3.09.75,6.14,1.65,9.21,2.49C242,122.59,242,122.63,242.1,122.65Z" transform="translate(-77.71 -11.86)"/><path d="M142.77,71.67c-1.37.38-2.7.7-4,1-.62.17-1.22.43-1.85.58a1.05,1.05,0,0,0-.86,1.34c.09.8.13,1.6.21,2.4.26,2.61.53,5.22.79,7.83.09,1,.16,1.93.2,2.9.08,2.13.12,4.26.2,6.38.13,3.43.27,6.86.4,10.28.07,2,.15,4.06.18,6.09a3,3,0,0,1-.36,1,5.91,5.91,0,0,1-.41-.84c-.75-2.41-1.51-4.82-2.22-7.24s-1.31-4.63-2-7c-.47-1.66-1-3.31-1.4-5-.55-2.1-1.06-4.21-1.58-6.31-.47-1.93-1-3.86-1.39-5.79-.48-2.09-.93-4.19-1.4-6.29-.34-1.51-.65-3-1.08-4.53-.19-.68,0-1,.58-1.23,4.36-1.65,8.71-3.32,13.09-4.91,3.14-1.15,6.33-2.18,9.5-3.25,3.32-1.11,6.64-2.23,10-3.3,2.11-.67,4.26-1.25,6.39-1.87.77-.23,1.53-.46,2.31-.67,1.18-.31,1.38-1.27,1.41-2.26.1-3.29.13-6.58.21-9.86,0-1.83.11-3.66.2-5.49.11-2.1.22-4.21.41-6.3.29-3.12.67-6.22,1-9.34.24-2.37.41-4.74.61-7.11a1.92,1.92,0,0,1,.18-.62,2.83,2.83,0,0,1,.34-.51c.16.17.42.32.46.51.36,1.64.7,3.3,1,5,.4,2.16.79,4.33,1.13,6.5.2,1.25.3,2.52.47,3.79.39,2.92.81,5.83,1.19,8.75.1.83.12,1.67.2,2.51.26,2.61.54,5.21.79,7.82.16,1.6.27,3.21.41,4.81.19,2.17.36,4.35.61,6.52a1.69,1.69,0,0,1-1.28,1.92c-3.37,1.23-6.76,2.42-10.13,3.63-2.11.75-4.2,1.56-6.32,2.28s-4.13,1.24-6.18,1.9c-1.6.52-3.16,1.18-4.77,1.68-2.21.69-4.45,1.28-6.67,1.92A2.26,2.26,0,0,0,142.77,71.67Z" transform="translate(-77.71 -11.86)"/></g></svg>