<svg id="Layer_1" data-name="Layer 1" xmlns="http://www.w3.org/2000/svg" viewBox="0 0 364.29 204.18"><title>foot-icon</title><g id="Shape_156" data-name="Shape 156"><path d="M268.22,202.43c6.43,9.09,12.19,18.68,19.15,27.38a126.06,126.06,0,0,0,73.71,44.61c-8.37,3.89-18.17,3.92-27.09,1.52s-17.06-7.07-24.66-12.3a172.42,172.42,0,0,1-48-49.95c-19.54-31-56.12-47.8-76.65-78.14-2.8-4.15-5.37-8.88-4.95-13.87s5.09-9.86,10-8.7c10.12,22.89,31.41,38.39,49.44,55.74A235.79,235.79,0,0,1,268.22,202.43Z" transform="translate(-2.52 -77.74)"/><path d="M236,157c-15.42-14.18-33.15-27.63-40.31-47.31,17-14.07,35.16-28.68,57-32,2.35,11.27,4.79,22.8,10.78,32.63s16.3,17.84,27.81,17.85c4.07,0,5.09,5.56,5.27,9.63a53,53,0,0,0,22.8,40.89c5.48,3.71,12.24,7.11,13.84,13.54,6.63,26.6,28.94,47.61,33.66,74.62-12,1.44-23.91-2.79-34.56-8.42a132.45,132.45,0,0,1-49.57-45.71A280.48,280.48,0,0,0,236,157Z" transform="translate(-2.52 -77.74)"/><path d="M308.82,158.93a47.31,47.31,0,0,1-4.09-10.74,108.72,108.72,0,0,1-3-15.27,12,12,0,0,1,4-10,19.72,19.72,0,0,1,10.05-4.62c1.67-.3,4,0,4.13,1.74a372.51,372.51,0,0,0,8.74,57.63C321.12,172.44,313.31,166.94,308.82,158.93Z" transform="translate(-2.52 -77.74)"/><path d="M204.19,197.38l-144.4-3.53-8.63-.21L204,189.91A38.85,38.85,0,0,1,204.19,197.38Z" transform="translate(-2.52 -77.74)"/><path d="M280.23,281.92l-145.75-3.18a37.55,37.55,0,0,1-6.87-.57l153.06-3.46C280.52,277.12,280.38,279.52,280.23,281.92Z" transform="translate(-2.52 -77.74)"/><path d="M254.83,254.23l-151.4-3.64,152.93-3.7c0,1.88.05,3.77.07,5.66A1.75,1.75,0,0,1,256,254,1.7,1.7,0,0,1,254.83,254.23Z" transform="translate(-2.52 -77.74)"/><path d="M174.09,166.24,79.65,164l-58.22-1.4,153.1-3.72Z" transform="translate(-2.52 -77.74)"/><path d="M155.22,129.42,40.51,126.67l-38-.91,152.84-3.67-.14,7.33Z" transform="translate(-2.52 -77.74)"/><path d="M179.73,92.55,32.84,89.33a24.32,24.32,0,0,1-5.85-.6l152.74-3.34v7.16Z" transform="translate(-2.52 -77.74)"/><path d="M78.11,222.8l151.51-3.61a2.62,2.62,0,0,1,2.37,2.2,7.77,7.77,0,0,1-.35,3.47,1.71,1.71,0,0,1-2.09,1.65Z" transform="translate(-2.52 -77.74)"/></g></svg>