<svg id="Layer_1" data-name="Layer 1" xmlns="http://www.w3.org/2000/svg" viewBox="0 0 356.62 78.71"><defs><style>.cls-1{fill:#040505;}</style></defs><title>social-icons</title><g id="Group_7" data-name="Group 7"><g id="Shape_153" data-name="Shape 153"><path id="Path_3" data-name="Path 3" class="cls-1" d="M122.4,217.64c-6.57,0-13.9-.35-18.47-5.07-4.38-4.52-4.66-11.49-4.69-17.78Q99.17,179,99.1,163.2c0-6.18.14-12.94,4.13-17.66a17.69,17.69,0,0,1,9.83-5.45,53.06,53.06,0,0,1,11.39-.81l28.14.05a50.25,50.25,0,0,1,11.86,1,16.92,16.92,0,0,1,9.93,6.16c3,4.21,3.12,9.76,3.12,14.93q0,16.46,0,32.9c0,6.44-.26,13.57-4.7,18.23-4.72,4.93-12.38,5.24-19.21,5.22l-31.23-.1M114.35,203a16.15,16.15,0,0,0,8.14,3.91,48.07,48.07,0,0,0,9.12.62l12,0a48.3,48.3,0,0,0,10.87-.78,16.09,16.09,0,0,0,9.25-5.38c3.28-4.17,3.42-9.91,3.43-15.21q0-7.53,0-15.06c0-5.14-.11-10.67-3.13-14.84a17.58,17.58,0,0,0-12-6.33,100.35,100.35,0,0,0-14-.17,97.52,97.52,0,0,0-13.78.23,17.23,17.23,0,0,0-11.81,6.36c-2.82,4-2.95,9.22-3,14.11q0,7.09-.08,14.19a47.93,47.93,0,0,0,.6,9.72,16.21,16.21,0,0,0,4.32,8.58Z" transform="translate(-6.81 -139.04)"/><path id="Path_4" data-name="Path 4" class="cls-1" d="M138.27,188.22a9.64,9.64,0,1,1,8.22-4.46A9.86,9.86,0,0,1,138.27,188.22Z" transform="translate(-6.81 -139.04)"/><path id="Path_5" data-name="Path 5" class="cls-1" d="M118,199.09c-3.14-3.06-3.35-8-3.35-12.35V170.5a33.51,33.51,0,0,1,.45-6.71,11.11,11.11,0,0,1,3-5.9c3-2.88,7.69-3,11.89-3l17.42,0a16.6,16.6,0,0,1,10.38,2.35,11.05,11.05,0,0,1,3.69,6.31,33,33,0,0,1,.54,7.42L162,187c0,4.2-.19,8.85-3.1,11.89a11.1,11.1,0,0,1-5.88,3,33.85,33.85,0,0,1-6.67.44l-16.42,0c-4.23,0-8.92-.2-12-3.14m24.16-34.88a14.87,14.87,0,1,0,9.23,7.25,14.86,14.86,0,0,0-9.23-7.25m13,2.09a3.45,3.45,0,1,0-3.1-.18,3.56,3.56,0,0,0,3.1.18Z" transform="translate(-6.81 -139.04)"/></g><g id="Shape_152" data-name="Shape 152"><path id="Path_6" data-name="Path 6" class="cls-1" d="M285.48,171.51V140.06a.88.88,0,0,1,.36-.61h0a3.59,3.59,0,0,1,.72-.11h75.57a1,1,0,0,1,.9.44.92.92,0,0,1,0,.29.67.67,0,0,0,.06.15c0-.05.07-.09.1-.15s0-.08,0-.12l.06.16s0,.07,0,.11a3.47,3.47,0,0,1,.08.55v75.06a3,3,0,0,1-.08.51s0,0-.05.07a.47.47,0,0,1-.06-.09l-.09-.14a.67.67,0,0,0-.07.18c0,.34-.16.44-.46.58a2.43,2.43,0,0,1-1.07.09h-75.2a.85.85,0,0,1-.88-.84v0c0-.67,0-1.33,0-2V171.51m46.37,30.79.26-.14c.61-.37,1.23-.72,1.82-1.12.87-.59,1.72-1.2,2.57-1.83.52-.38,1-.79,1.51-1.2s.89-.75,1.32-1.16,1.09-1.08,1.63-1.63.87-.91,1.3-1.38c.25-.28.5-.56.75-.86.38-.47.75-.94,1.11-1.42s.85-1.13,1.26-1.71.89-1.34,1.31-2,.93-1.55,1.35-2.35a39.9,39.9,0,0,0,1.83-3.92c.31-.8.62-1.61.91-2.42.22-.63.41-1.26.6-1.9s.34-1.18.5-1.77.27-1.11.39-1.67.19-1,.28-1.46.1-.73.16-1.1.13-.9.19-1.35.09-.7.12-1c0-.61.1-1.21.11-1.83,0-1.11,0-2.23,0-3.34a.33.33,0,0,1,.09-.27c.47-.39,1-.74,1.42-1.13s1.1-.93,1.62-1.43,1.12-1.15,1.66-1.73c.32-.34.61-.7.9-1.06.56-.7,1.11-1.41,1.66-2.13,0,0,0-.06,0-.07a.12.12,0,0,0-.09,0,.29.29,0,0,0-.16,0c-.56.23-1.1.48-1.67.69s-1.16.38-1.74.56a20.26,20.26,0,0,1-2.66.66l-1.95.35h-.13a.54.54,0,0,1,.09-.12,11.66,11.66,0,0,0,2.15-1.6,15.62,15.62,0,0,0,1.75-1.89,13.17,13.17,0,0,0,1.44-2.27c.35-.72.64-1.46,1-2.19a.17.17,0,0,0,0-.1l-.17,0c-.58.32-1.16.66-1.75,1-.36.19-.74.36-1.11.52-.58.26-1.15.51-1.73.73-.75.27-1.51.52-2.27.76s-1.36.33-2,.51a.62.62,0,0,1-.65-.2,20.33,20.33,0,0,0-1.54-1.39,13.9,13.9,0,0,0-2.56-1.56,17.56,17.56,0,0,0-2.22-.86,14.9,14.9,0,0,0-2.56-.52,11.71,11.71,0,0,0-1.57-.08c-.52,0-1.05,0-1.57.07a8,8,0,0,0-.84.08c-.49.09-1,.18-1.46.31a14.75,14.75,0,0,0-5.58,2.86,13,13,0,0,0-1.73,1.66c-.46.56-.92,1.13-1.32,1.73a11.26,11.26,0,0,0-1,1.68c-.32.69-.56,1.42-.82,2.13a9.27,9.27,0,0,0-.29,1c-.08.41-.14.82-.19,1.23a14,14,0,0,0-.16,1.42,11.83,11.83,0,0,0,.11,2.38c.09.46.16.93.24,1.39,0,.13,0,.22-.18.21-.47-.05-.95-.08-1.42-.12l-1.62-.16c-.39,0-.78-.09-1.16-.15l-2.05-.4c-.66-.13-1.32-.27-2-.44-.83-.22-1.65-.47-2.47-.73-.65-.21-1.29-.45-1.93-.69s-1.28-.5-1.92-.79-1.34-.58-2-.91-1.4-.76-2.09-1.14-1.08-.64-1.61-1-1.16-.75-1.72-1.16-1.28-.92-1.9-1.41-1.17-.95-1.73-1.45-1.09-1-1.63-1.51c-.25-.24-.47-.51-.7-.74s-.67-.68-1-1-.42-.5-.63-.75-.43-.51-.65-.76-.18-.12-.27,0a2.52,2.52,0,0,0-.19.35,16.66,16.66,0,0,0-.7,1.55,13.38,13.38,0,0,0-.51,1.55c-.15.61-.25,1.24-.35,1.87s-.13,1.1-.16,1.65a8.44,8.44,0,0,0,0,.87c0,.38,0,.77.08,1.16a9,9,0,0,0,.16,1.16c.14.64.3,1.28.5,1.9a13.5,13.5,0,0,0,.74,1.75,18,18,0,0,0,1,1.71c.25.4.56.77.85,1.15.18.23.38.45.58.66.41.42.81.85,1.25,1.24s.85.62,1.26.93l.07.09s-.08.05-.12,0a4.07,4.07,0,0,1-.5,0l-1.53-.24c-.51-.1-1-.2-1.46-.34a15.26,15.26,0,0,1-1.48-.52c-.45-.18-.87-.41-1.3-.61-.05,0-.13-.06-.16,0s-.06.11-.06.16c0,.43,0,.87,0,1.29a8.6,8.6,0,0,0,.16,1.34c.16.73.36,1.45.58,2.17a12.23,12.23,0,0,0,.59,1.45c.25.51.53,1,.82,1.52a11.83,11.83,0,0,0,1.53,2.06c.3.34.63.66,1,1s.88.79,1.35,1.14a12.19,12.19,0,0,0,2.16,1.31c.52.25,1,.48,1.59.68a7.76,7.76,0,0,0,1.83.5c.05,0,.11.06.16.1l-.14.06-.12,0c-.53.08-1,.17-1.57.23s-1.13.12-1.7.15c-.35,0-.71,0-1.07,0s-.46,0-.69,0a2.87,2.87,0,0,1-.41-.05l-.74-.11c-.15,0-.15,0-.1.17.15.36.3.73.44,1.1a11.39,11.39,0,0,0,1.14,2.19,15.76,15.76,0,0,0,1.4,1.85,13.42,13.42,0,0,0,1.9,1.79,18.93,18.93,0,0,0,1.94,1.26,14.58,14.58,0,0,0,1.73.85c.54.22,1.11.38,1.67.55a6.77,6.77,0,0,0,.74.2c.46.08.91.14,1.37.19a3.76,3.76,0,0,0,1.25.09.52.52,0,0,1,.16.06L310,195c-.06,0-.13.05-.18.09-.42.3-.82.62-1.26.89-.95.59-1.9,1.18-2.88,1.74a12.14,12.14,0,0,1-1.5.72c-.56.26-1.11.51-1.69.74s-1.13.41-1.71.59-.9.28-1.36.39-1.05.25-1.57.36-1.21.25-1.81.34-.91.12-1.37.16-1,.1-1.51.12-1.13,0-1.69,0-1.34,0-2-.08c-.33,0-.66-.08-1-.11a.45.45,0,0,0-.19,0,.53.53,0,0,0,.12.14c.74.42,1.48.86,2.23,1.26s1.26.69,1.9,1c1.09.5,2.19,1,3.3,1.42,1,.39,1.94.74,2.93,1s1.89.49,2.84.72c.57.13,1.14.27,1.72.38s1.17.2,1.76.28,1.07.14,1.6.2.83.09,1.24.11c.56,0,1.12.08,1.67.08,1.22,0,2.43,0,3.64,0,.33,0,.66,0,1,0h0l1.54-.16c.3,0,.6,0,.89-.08.58-.08,1.15-.18,1.73-.27s1.07-.17,1.61-.28c.93-.21,1.86-.42,2.79-.67.71-.19,1.41-.41,2.1-.65s1.21-.43,1.81-.67c1-.42,2-.84,3-1.3.72-.33,1.41-.73,2.13-1.12Z" transform="translate(-6.81 -139.04)"/><path id="Path_7" data-name="Path 7" class="cls-1" d="M336.87,217.16h25.46a2.65,2.65,0,0,0,.48-.07l.07,0s0,0-.05,0l-.54.16a.11.11,0,0,1-.08,0H286.39a1.35,1.35,0,0,1-.61-.18,1.75,1.75,0,0,1-.29-.18s0-.05,0-.08h.09a2.26,2.26,0,0,0,.26.16,1.46,1.46,0,0,0,.41.11Q311.52,217.17,336.87,217.16Z" transform="translate(-6.81 -139.04)"/><path id="Path_8" data-name="Path 8" class="cls-1" d="M344.58,139.05h17.54a1.92,1.92,0,0,1,.91.29c.1.06.14.2.21.31a.31.31,0,0,1,0,.1.73.73,0,0,1-.09-.08.93.93,0,0,0-.64-.41,9,9,0,0,0-2.13-.09c-.72,0-1.43,0-2.15,0H286.47l-.28.08a2,2,0,0,1-.34,0h-.14c.05,0,.1-.11.15-.12a7.2,7.2,0,0,1,1-.12Z" transform="translate(-6.81 -139.04)"/><path id="Path_9" data-name="Path 9" class="cls-1" d="M285.32,171.36V216.3a1.77,1.77,0,0,1,0,.2.57.57,0,0,1-.07-.22v-76a.79.79,0,0,1,.06-.22,1.6,1.6,0,0,1,.05.21Z" transform="translate(-6.81 -139.04)"/><path id="Path_10" data-name="Path 10" class="cls-1" d="M285.39,139.7s0-.07,0-.09l.16-.12,0,0-.1.13Z" transform="translate(-6.81 -139.04)"/></g><g id="Shape_151" data-name="Shape 151"><path id="Path_11" data-name="Path 11" class="cls-1" d="M192.15,212V145c.17.09.15,0,.14-.12a3.82,3.82,0,0,1,.16-1.35,5.39,5.39,0,0,1,1.22-2.19,7.58,7.58,0,0,1,.84-.76,5.77,5.77,0,0,1,.77-.52,5.84,5.84,0,0,1,2.41-.7h.23c.12,0,.14-.05.08-.15h66.82c-.09.17,0,.14.13.14a8.8,8.8,0,0,1,1,.09,5.82,5.82,0,0,1,1,.3,4.81,4.81,0,0,1,1.55.9,16.72,16.72,0,0,1,1.16,1.22,4.35,4.35,0,0,1,.77,1.4.9.9,0,0,0,.15.19v70.32s-.06,0-.06,0a3.51,3.51,0,0,1-.43,1,5.46,5.46,0,0,1-.8,1.06,6.09,6.09,0,0,1-.66.58,5.11,5.11,0,0,1-2.64,1.17s0,0,0,.07H197.17s0-.06-.06-.06c-.29-.07-.58-.11-.86-.2a5.51,5.51,0,0,1-1.94-1.07A5.64,5.64,0,0,1,193,214.7a4.81,4.81,0,0,1-.69-2.56c0-.15,0-.17-.15-.1m30.58-32.89v26.62c0,.14,0,.22.19.22h11.43c.14,0,.18,0,.19-.18,0-6.81-.1-13.59.07-20.39v-.15l.15-1c.05-.33.08-.73.16-1.08s.22-.78.34-1.16a6.07,6.07,0,0,1,1.51-2.5c.14-.13.31-.25.45-.38a3.54,3.54,0,0,1,1.32-.75,10.46,10.46,0,0,1,1.36-.36,4.48,4.48,0,0,1,1.26-.15,8.86,8.86,0,0,1,1.26.06,6.77,6.77,0,0,1,1.09.21,4.9,4.9,0,0,1,1.2.52,5.37,5.37,0,0,1,.92.73c.19.2.34.44.52.66a4,4,0,0,1,.66,1.3c.14.42.25.85.35,1.29a7.58,7.58,0,0,1,.15.83c0,.28,0,.51.08.76q.1.7.15,1.41,0,10.17,0,20.34c0,.2.05.24.25.24h11.16c.19,0,.25,0,.25-.24v-7.41c0-2.47,0-4.94,0-7.41s.11-4.92-.07-7.38a13.09,13.09,0,0,0-.06-1.77,8.9,8.9,0,0,1-.09-1.26c0-.32,0-.64-.08-1s-.07-.44-.11-.66-.08-.42-.12-.63-.11-.66-.19-1-.25-.86-.34-1.29a10.44,10.44,0,0,0-.69-1.92c-.21-.48-.47-.93-.72-1.39a9.14,9.14,0,0,0-1.31-1.79,6.61,6.61,0,0,0-1.45-1.24c-.31-.18-.59-.42-.91-.59a15.19,15.19,0,0,0-1.53-.72,13.88,13.88,0,0,0-1.54-.51c-.43-.11-.88-.16-1.32-.24s-1-.17-1.46-.22-.88,0-1.32-.06a4.84,4.84,0,0,0-1.52,0,8.79,8.79,0,0,1-1.26.09l-.63.09c-.39.09-.77.21-1.16.29a9.36,9.36,0,0,0-1.92.69,9.92,9.92,0,0,0-2.3,1.37c-.42.35-.87.68-1.26,1a6.9,6.9,0,0,0-.74.88c-.25.34-.5.69-.73,1-.11.17-.19.36-.29.53a.73.73,0,0,1-.09.08l-.06-.11v-4.69c0-.18,0-.22-.22-.22H223c-.19,0-.23.05-.23.23v10.25m-7.35,9.07V168.88c0-.17,0-.22-.21-.22H204c-.18,0-.22.06-.22.23V206c0,.17,0,.23.22.23h11.2c.19,0,.23-.06.23-.24V188.22m-6.19-38.09a4.75,4.75,0,0,0-1.06.15,6.38,6.38,0,0,0-1.4.46,6,6,0,0,0-2.08,1.49c-.22.25-.43.52-.64.79a4.34,4.34,0,0,0-.65,1.22c-.13.38-.25.75-.35,1.16a3.58,3.58,0,0,0-.11.73,9.66,9.66,0,0,0,.06,1.52c.06.32.11.65.2,1a6.38,6.38,0,0,0,.67,1.51,8.19,8.19,0,0,0,.93,1.26,4.72,4.72,0,0,0,.59.5c.37.28.76.54,1.15.78a4.87,4.87,0,0,0,1.51.58,6,6,0,0,0,.94.19,7.23,7.23,0,0,0,2.27-.15,8.79,8.79,0,0,0,1.23-.39,7.06,7.06,0,0,0,1.32-.73,7.19,7.19,0,0,0,1.11-1,5.4,5.4,0,0,0,.71-1,5.63,5.63,0,0,0,.66-1.56,6.62,6.62,0,0,0,.18-1.24,4.84,4.84,0,0,0-.06-1.52c-.06-.21-.07-.44-.12-.66a5.82,5.82,0,0,0-.81-1.86,13.6,13.6,0,0,0-.86-1.14,3.78,3.78,0,0,0-.67-.59A8.31,8.31,0,0,0,213,151a5.19,5.19,0,0,0-1.9-.7c-.33,0-.66-.12-1-.15s-.59,0-.93,0Z" transform="translate(-6.81 -139.04)"/></g><g id="Shape_150" data-name="Shape 150"><path id="Path_12" data-name="Path 12" class="cls-1" d="M6.81,207.39V144.24A4.26,4.26,0,0,1,7.47,142a3.85,3.85,0,0,1,.73-.88,4.62,4.62,0,0,1,1.84-1,6.47,6.47,0,0,1,1.64-.15H80.36a3.9,3.9,0,0,1,1.83.51,3.51,3.51,0,0,1,1.19.9,4.13,4.13,0,0,1,1,1.84c0,.18.11.36.14.55a1.66,1.66,0,0,1,0,.32v69.39a4.24,4.24,0,0,1-.63,2.16,3.51,3.51,0,0,1-.74.89,4.47,4.47,0,0,1-1.79,1,5.35,5.35,0,0,1-1.49.15H60.74c-.32,0-.31-.08-.31-.3V187.88c0-.26,0-.29.28-.29h9.43c.39,0,.43-.05.47-.44s.12-1,.18-1.43.08-.66.12-1,.13-.89.19-1.34c0-.25.05-.49.08-.73s.1-.71.15-1.07,0-.45.08-.67.1-.72.15-1.09,0-.48.07-.73.11-.74.16-1.1,0-.47.07-.7c.06-.42.12-.85.19-1.28,0-.17,0-.21-.19-.21H60.74c-.25,0-.3-.06-.3-.3v-7.7a6.7,6.7,0,0,1,.5-2.69,3.52,3.52,0,0,1,1.51-1.7,5.19,5.19,0,0,1,2-.65,13.2,13.2,0,0,1,1.4-.11c2.14,0,4.27,0,6.4,0,.23,0,.25,0,.25-.26V152.32c0-.19-.08-.25-.25-.25l-1.45-.15-.52,0-1.61-.08-1.51-.07c-.39,0-.76,0-1.15,0-1.23,0-2.47-.05-3.7,0a13.45,13.45,0,0,0-1.89.19,14.85,14.85,0,0,0-2.69.65,17.4,17.4,0,0,0-1.85.74,14.79,14.79,0,0,0-1.64.94,12.2,12.2,0,0,0-1.08.85,8.17,8.17,0,0,0-.7.62,13.7,13.7,0,0,0-1.94,2.48,15,15,0,0,0-1.46,3.34c-.17.56-.3,1.14-.42,1.71a10.56,10.56,0,0,0-.15,1.11c-.06.63-.11,1.26-.16,1.9,0,.18,0,.36,0,.54v8.82c0,.25,0,.27-.26.27H38.38c-.18,0-.22.06-.22.23v11.34c0,.17,0,.22.22.22H48c.26,0,.26,0,.26.28V217.4c0,.23,0,.25-.27.25H10.74a3.33,3.33,0,0,1-1.62-.49,3.86,3.86,0,0,1-1.21-.91,4.7,4.7,0,0,1-1-1.82A5.91,5.91,0,0,1,6.81,213Z" transform="translate(-6.81 -139.04)"/></g></g></svg>