<svg id="Layer_1" data-name="Layer 1" xmlns="http://www.w3.org/2000/svg" viewBox="0 0 360.71 256.48"><defs><style>.cls-1{fill:#050606;}</style></defs><title>distance-icon</title><g id="Distance_Icon" data-name="Distance Icon"><g id="Group_13" data-name="Group 13"><path id="Path_23" data-name="Path 23" class="cls-1" d="M359.26,128.05a46.63,46.63,0,1,0-82.65-6.55l85.63.17Zm-39.62-6.55a19.69,19.69,0,1,1,19.69-19.69,19.7,19.7,0,0,1-19.69,19.69Z" transform="translate(-5.55 -56.85)"/><path id="Path_24" data-name="Path 24" class="cls-1" d="M276.62,121.53c.43,1,.9,2,1.4,3Z" transform="translate(-5.55 -56.85)"/><path id="Path_25" data-name="Path 25" class="cls-1" d="M276.61,121.49v0Z" transform="translate(-5.55 -56.85)"/><path id="Path_26" data-name="Path 26" class="cls-1" d="M319.64,150.12A46.63,46.63,0,0,1,278,124.52l41.62,89.2,39.64-85.67A46.61,46.61,0,0,1,319.64,150.12Z" transform="translate(-5.55 -56.85)"/><path id="Path_27" data-name="Path 27" class="cls-1" d="M319.64,150.12a46.61,46.61,0,0,0,39.64-22.07l3-6.39-85.63-.18v0l1.4,3A46.62,46.62,0,0,0,319.64,150.12Z" transform="translate(-5.55 -56.85)"/></g><g id="Group_14" data-name="Group 14"><path id="Path_23-2" data-name="Path 23-2" class="cls-1" d="M91.82,225a46.63,46.63,0,1,0-82.65-6.56l85.63.17ZM52.2,218.48a19.69,19.69,0,1,1,19.69-19.69A19.68,19.68,0,0,1,52.2,218.48Z" transform="translate(-5.55 -56.85)"/><path id="Path_24-2" data-name="Path 24-2" class="cls-1" d="M9.18,218.51c.43,1,.9,2,1.4,3Z" transform="translate(-5.55 -56.85)"/><path id="Path_25-2" data-name="Path 25-2" class="cls-1" d="M9.17,218.47v0Z" transform="translate(-5.55 -56.85)"/><path id="Path_26-2" data-name="Path 26-2" class="cls-1" d="M52.2,247.1a46.63,46.63,0,0,1-41.62-25.6L52.2,310.7,91.84,225A46.61,46.61,0,0,1,52.2,247.1Z" transform="translate(-5.55 -56.85)"/><path id="Path_27-2" data-name="Path 27-2" class="cls-1" d="M52.2,247.1A46.61,46.61,0,0,0,91.84,225l3-6.4-85.63-.17v0l1.4,3A46.63,46.63,0,0,0,52.2,247.1Z" transform="translate(-5.55 -56.85)"/></g><g id="Shape_155" data-name="Shape 155"><path id="Path_28" data-name="Path 28" class="cls-1" d="M169.9,278.8l-12.05,4.39c-.68.24-1,.1-1.24-.58l-3.06-8.42c-.24-.67-.14-1,.57-1.26q11.13-4,22.21-8.08c1-.36.88-.27,1.15.52.65,1.89,1.27,3.8,1.94,5.69.31.87.73,1.7,1.06,2.56s.22,1.24-.73,1.59Z" transform="translate(-5.55 -56.85)"/><path id="Path_29" data-name="Path 29" class="cls-1" d="M227.71,255.85l.26.71c.26.71.08,1.08-.62,1.33L205.21,266c-.58.21-.93,0-1.2-.66-.19-.46-.34-.92-.5-1.38L201,257c-.34-.93-.28-1.05.61-1.37l22.27-8.11c.55-.2.8-.15,1,.45.45,1.47.93,2.94,1.45,4.39C226.73,253.54,227.23,254.66,227.71,255.85Z" transform="translate(-5.55 -56.85)"/><path id="Path_30" data-name="Path 30" class="cls-1" d="M266.93,243.48l-14.36,5.23c-.49.18-.71.14-.9-.39-1.06-3-2.16-6-3.27-9-.17-.47-.1-.67.38-.85q11.34-4.09,22.66-8.24c.46-.17.64-.08.8.37.78,2.21,1.6,4.4,2.4,6.6.28.76.53,1.54.84,2.29s-.06.89-.58,1.08Z" transform="translate(-5.55 -56.85)"/><path id="Path_31" data-name="Path 31" class="cls-1" d="M128.18,294c-6,2.19-12,4.35-17.92,6.54-.62.22-.81.08-1-.5q-1.55-4.36-3.17-8.69c-.2-.56-.11-.86.48-1.08q11.24-4.06,22.47-8.18c.46-.17.67-.12.84.38q1.59,4.47,3.25,8.93c.2.53.06.79-.46,1C131.18,292.88,129.71,293.43,128.18,294Z" transform="translate(-5.55 -56.85)"/><path id="Path_32" data-name="Path 32" class="cls-1" d="M297,225.35l-1.18-3.24a.59.59,0,0,1,.41-.89l10.28-3.74c.36-.13.53,0,.66.31q1.65,4.56,3.32,9.11c.22.62-.19.79-.62.94l-7.83,2.85c-.65.24-1.3.45-1.93.71s-.87.11-1.08-.48C298.4,229.1,297.71,227.25,297,225.35Z" transform="translate(-5.55 -56.85)"/><path id="Path_33" data-name="Path 33" class="cls-1" d="M79.6,311.67l-4.34,1.58c-.51.18-.79.07-1-.45q-1.59-4.41-3.2-8.8c-.2-.55,0-.82.49-1q5-1.8,10-3.65c.47-.17.67-.1.85.39q1.59,4.44,3.23,8.86c.24.66-.07.9-.58,1.08Z" transform="translate(-5.55 -56.85)"/></g></g></svg>