<svg id="Layer_1" data-name="Layer 1" xmlns="http://www.w3.org/2000/svg" viewBox="0 0 371.01 364.88"><defs><style>.cls-1{fill:#399;}</style></defs><title>logo-icon</title><g id="VW_Logo" data-name="VW Logo"><path id="Path_1" data-name="Path 1" class="cls-1" d="M187.88,208.56c-1.88,4.16-3.8,8.15-5.61,12.17-2.56,5.75-5,11.56-7.52,17.32-2.14,4.95-4.33,9.87-6.39,14.84-2.82,6.79-5.51,13.64-8.3,20.44s-5.74,13.86-8.6,20.79c-.57,1.38-1.13,2.76-1.65,4.16-.08.2,0,.48.08.73a3,3,0,0,0,.55-.45c1.11-1.51,2.18-3,3.32-4.55,2.18-2.85,4.41-5.66,6.61-8.52,2.51-3.22,5-6.47,7.54-9.67,1.93-2.44,4-4.82,5.93-7.23,2.73-3.34,5.43-6.69,8.17-10,2.11-2.57,4.26-5.1,6.4-7.65,2.58-3.09,5.13-6.21,7.73-9.28,2-2.33,4-4.59,6-6.91,3.22-3.81,6.39-7.66,9.62-11.46,1.09-1.29,2.28-2.49,3.4-3.75,4.09-4.6,8.1-9.27,12.28-13.78a19.5,19.5,0,0,1,8.78-6.69,9.1,9.1,0,0,1,6.36.74,74.49,74.49,0,0,1,8.64,4.38,11.85,11.85,0,0,1,5.92,12.61,66,66,0,0,1-2.74,9.46c-2.43,7.63-5,15.21-7.3,22.87-2.55,8.37-5,16.79-7.3,25.22s-4.59,16.73-6.89,25.09c-.28,1-.72,2-1,3a4.17,4.17,0,0,0-.18,1.32c0,.2.29.39.44.61a2.34,2.34,0,0,0,.44-.45,81,81,0,0,1,9.29-12.06q4.73-6,9.6-11.79c2-2.38,4.05-4.67,6.08-7,2.89-3.37,5.73-6.79,8.62-10.16,1.63-1.89,3.32-3.72,5-5.6,3.57-4.08,7.13-8.18,10.71-12.26q2.73-3.09,5.52-6.14c3-3.28,6.08-6.51,9.13-9.79,3.62-3.9,7.18-7.85,10.82-11.74,3.91-4.17,7.83-8.34,11.81-12.43Q333.6,190,348.2,175.14q4.51-4.57,9.26-8.93c3.7-3.41,7.51-6.69,11.28-10.06a24,24,0,0,1,2.76-2.38,8.61,8.61,0,0,1,2.43-.72,6.05,6.05,0,0,1,0,1.9c-1.61,5.15-3,10.41-5.08,15.37a38.13,38.13,0,0,1-5.62,8.43c-2.67,3.37-5.61,6.54-8.46,9.77-3.44,3.89-6.92,7.75-10.35,11.63l-9.93,11.18c-3.69,4.19-7.4,8.36-11,12.61-4.35,5.1-8.64,10.25-12.92,15.41-3.85,4.63-7.7,9.27-11.47,14s-7.58,9.66-11.39,14.48c-3.92,5-7.91,9.91-11.79,14.94s-7.5,10-11.27,15c-4.26,5.63-8.6,11.2-12.78,16.88-4,5.44-7.87,11-11.83,16.47q-8,11-16,21.91c-1.54,2.09-3.14,4.16-4.87,6.08a12.84,12.84,0,0,1-12.65,4.33,81.76,81.76,0,0,1-17.77-5.4,11.28,11.28,0,0,1-6.65-8.84,30.53,30.53,0,0,1-.61-8.31,109.06,109.06,0,0,1,1.82-12.33c1.22-6.28,2.61-12.54,4.05-18.77,1.31-5.68,2.76-11.34,4.21-17,1.26-4.94,2.51-9.88,3.91-14.77,1-3.57,2.28-7.07,3.39-10.61a3.15,3.15,0,0,0-.08-1.1,3.18,3.18,0,0,0-1,.56c-4.26,5.26-8.46,10.55-12.71,15.82-3.91,4.8-7.87,9.55-11.8,14.31-4.49,5.43-9,10.82-13.46,16.29-4.17,5.12-8.23,10.34-12.37,15.47-3.65,4.53-7.4,9-11,13.55s-7.3,9.46-11.07,14.13c-2.26,2.84-4.7,5.54-7,8.33a18.57,18.57,0,0,1-5.89,5.3,6.79,6.79,0,0,1-6,0,37.74,37.74,0,0,1-11.91-8.52A21.28,21.28,0,0,1,88,345.93a55.93,55.93,0,0,1,4.26-19.33q3.28-8.94,6.75-17.81c1.89-4.87,3.88-9.63,5.81-14.45s3.78-9.67,5.75-14.48c2.79-6.8,5.66-13.57,8.48-20.36,2.59-6.21,5.11-12.45,7.75-18.65,1.68-3.93,3.53-7.79,5.28-11.7,2.51-5.61,4.95-11.27,7.51-16.86q5.57-12.15,11.26-24.22c1.64-3.48,3.35-6.93,5.08-10.38,2.86-5.74,5.67-11.5,8.66-17.17a61.12,61.12,0,0,1,5.76-9.61c2.87-3.65,3.71-2.56,6.69-.56,5.55,3.73,11,7.6,16.53,11.36a15.22,15.22,0,0,1,6.76,9.23,19.77,19.77,0,0,1-.25,7.47,56.73,56.73,0,0,1-2.53,9.4c-1.22,3.24-2.81,6.32-4.26,9.46C191.43,201,189.64,204.7,187.88,208.56Z" transform="translate(-3 -5.88)"/><path id="Path_2" data-name="Path 2" class="cls-1" d="M189.08,40.4c2.95-2.83,5.77-5.63,8.68-8.34,3.59-3.35,7.2-6.69,10.87-9.93s7.4-6.46,11.19-9.57a3.27,3.27,0,0,1,2.47-.47c.37.08.67,1.25.71,1.94.09,2,0,4,0,6a15.07,15.07,0,0,1-4,9.41c-2.18,2.8-4.65,5.38-7,8-3.25,3.61-6.55,7.17-9.81,10.76q-4.59,5-9.17,10.1L180.34,72.25q-4.53,5-9.05,10Q165,89.16,158.71,96.07c-2.8,3.09-5.58,6.22-8.39,9.32q-6.23,6.87-12.47,13.72c-2.84,3.13-5.66,6.28-8.51,9.43l-11.48,12.73q-4,4.42-8,8.88-5.23,5.86-10.48,11.74-4.65,5.24-9.27,10.51L78.79,185.33c-3,3.4-6,6.77-8.93,10.19C65.42,200.65,61,205.81,56.61,211c-3.2,3.72-6.37,7.46-9.61,11.15-2.26,2.57-4.55,5.14-7,7.56a9.56,9.56,0,0,1-8.14,3.2A21.92,21.92,0,0,1,25.81,231a49.72,49.72,0,0,1-17-12.67,21.3,21.3,0,0,1-5.21-11.56A30.11,30.11,0,0,1,3,200.6a76.56,76.56,0,0,1,1.8-12c2-7.68,4.26-15.28,6.58-22.87q2.68-8.85,5.73-17.6c3.44-10,6.9-19.92,10.52-29.81C31,109.15,34.44,100.08,38,91Q42.69,79,47.71,67q3.65-8.79,7.49-17.49Q59.94,38.7,64.81,28c1.63-3.55,3.42-7,5.17-10.5,1.41-2.8,2.82-5.6,4.31-8.35,2.16-4,4.83-3.78,8.28-2.33a36.27,36.27,0,0,1,10,6.48c2,1.83,4.14,3.65,6.13,5.53a19.34,19.34,0,0,1,5.48,11.77,32.22,32.22,0,0,1-2,15.49c-2.79,8-5.91,16-8.88,23.95q-3.19,8.58-6.36,17.19c-2.76,7.49-5.57,15-8.31,22.46-1.83,5.06-3.61,10.16-5.43,15.21-3,8.35-6,16.66-8.92,25-2.39,6.87-4.66,13.79-7,20.69-.38,1.13-1,2.2-1.36,3.34a3.73,3.73,0,0,0,.1,1.37,6.6,6.6,0,0,0,.95-.8c1.43-1.74,2.75-3.58,4.26-5.25,2.29-2.53,4.71-4.91,7-7.4q6.09-6.51,12.17-13.07c1-1.08,2-2.22,3-3.29,3.81-3.94,7.66-7.85,11.47-11.8,2.33-2.43,4.6-4.86,7-7.25q27.47-27.66,55-55.27c3-3,6.09-5.89,9.13-8.83q3.51-3.37,7-6.74l14.53-13.9C187.94,41.27,188.49,40.89,189.08,40.4Z" transform="translate(-3 -5.88)"/></g></svg>