<svg id="Layer_1" data-name="Layer 1" xmlns="http://www.w3.org/2000/svg" viewBox="0 0 353.51 264.81"><title>time-icon</title><g id="Shape_154" data-name="Shape 154"><path d="M259.65,146.82c-1,2.91-1.89,5.74-2.95,8.52-.64,1.65-1.5,3.21-2.29,4.81s-1.56,3.42-2.53,5a82.9,82.9,0,0,1-5.15,7.81,90.85,90.85,0,0,1-7.32,8.36,79.48,79.48,0,0,1-8.08,7,64,64,0,0,1-8.1,5.18c-3,1.64-6.23,3-9.37,4.4a40.35,40.35,0,0,1-4.22,1.69c-1.51.49-3.08.82-4.63,1.2-1.9.48-3.79,1-5.7,1.4-.71.16-1.46.17-2.19.28-6,1-12.1.6-18.16.59a31.84,31.84,0,0,1-4.59-.76c-.9-.13-1.83-.11-2.72-.26-1.36-.23-2.72-.5-4.05-.84-1.76-.44-3.52-.92-5.25-1.47-1.08-.33-2.1-.83-3.15-1.23s-2.4-.81-3.53-1.33c-1.62-.75-3.18-1.6-4.76-2.43s-3.07-1.55-4.52-2.46c-2.29-1.41-4.56-2.87-6.74-4.44a46.7,46.7,0,0,1-4.91-4.07c-2.71-2.63-5.45-5.26-7.88-8.14a83.15,83.15,0,0,1-6-8.48,49.6,49.6,0,0,1-5-9.63c-.6-1.64-1.46-3.17-2-4.8-.53-1.46-.87-3-1.28-4.5s-.89-3.13-1.27-4.71c-.26-1.08-.28-2.24-.64-3.29-.78-2.25-.68-4.57-.83-6.89-.12-1.83-.56-3.66-.57-5.5,0-2.17.27-4.35.43-6.53,0-.37.12-.73.15-1.09.15-1.83.16-3.68.46-5.47s.94-3.66,1.38-5.49c.4-1.66.68-3.35,1.12-5a28.92,28.92,0,0,1,1.19-3.17c.7-1.76,1.35-3.56,2.16-5.28,1-2.16,2.11-4.29,3.25-6.39,1-1.75,1.94-3.48,3-5.13,1.23-1.85,2.53-3.65,3.92-5.38a49.86,49.86,0,0,1,4.45-5.06c3.77-3.62,7.53-7.27,12.05-10,2.4-1.45,4.75-3,7.21-4.33,2.14-1.18,4.38-2.21,6.63-3.2,2.06-.9,4.16-1.75,6.3-2.45,1.74-.56,3.55-.89,5.34-1.28,2.21-.48,4.43-.93,6.64-1.39a4.11,4.11,0,0,1,.6-.08,74.83,74.83,0,0,0,8-.74c2.35-.29,4.81.23,7.21.4.2,0,.39.12.58.13a54,54,0,0,1,8.48,1c1.92.33,3.79.88,5.72,1.19a16.07,16.07,0,0,1,5.21,1.5c1.75,1,3.75,1.25,5.44,2.34,1.18.75,2.59,1.14,3.86,1.78,1.93,1,3.89,1.94,5.73,3.09,2.26,1.4,4.47,2.92,6.61,4.51,1.55,1.15,3,2.46,4.41,3.76A52.79,52.79,0,0,1,240.9,74c2,2.27,3.81,4.72,5.81,7,2.67,3.05,4.55,6.61,6.6,10.05a47.54,47.54,0,0,1,2.84,6.14c.85,2,1.65,4.07,2.36,6.14.54,1.56.95,3.18,1.34,4.78a45,45,0,0,1,1.51,8.4c.1,2,.57,4,.78,6a23.55,23.55,0,0,1,0,3c-.06,2.94.2,5.93-.31,8.79-.45,2.56-.25,5.22-1.26,7.72a24.72,24.72,0,0,0-.94,4.74m-23.13-37.26a2.32,2.32,0,0,0,.7-.08c1.32-.6,2.63-1.22,3.94-1.85.13-.07.19-.27.28-.4-.14-.06-.3-.2-.4-.17-.62.18-1.22.42-1.84.61-1.27.39-2.56.73-3.82,1.15-2.11.71-4.19,1.49-6.31,2.2-1.41.47-2.87.81-4.28,1.28s-2.59,1-3.9,1.44-2.68.78-4,1.22-2.35.88-3.54,1.29c-1.59.55-3.19,1.06-4.79,1.59-1.13.38-2.26.78-3.4,1.14-1.51.47-3,.9-4.56,1.38-1.17.37-2.32.77-3.48,1.18-1.53.53-3,1.1-4.57,1.61a1.09,1.09,0,0,1-.76-.14,3.73,3.73,0,0,1-2.07-3.2c-.17-2.67-.45-5.34-.61-8-.13-2.2-.14-4.4-.22-6.61-.06-1.47-.11-2.94-.21-4.41-.19-2.78-.53-5.55-.6-8.32-.11-4.11-.09-8.21-.6-12.31-.37-3-.19-6.14-.27-9.22a16.25,16.25,0,0,0-.21-1.69,1,1,0,0,0-.18-.29c-.08.11-.21.23-.22.35-.09,1.33-.16,2.66-.22,4-.08,2-.12,3.92-.21,5.88-.13,2.63-.29,5.26-.42,7.89-.15,3.32-.24,6.65-.43,10-.14,2.43-.46,4.85-.6,7.28-.26,4.41-.43,8.82-.65,13.24-.06,1.26-.09,2.53-.23,3.78a1.86,1.86,0,0,1-.65,1,6.86,6.86,0,0,0-2.7,5.14,6.38,6.38,0,0,0,.8,2.51,6,6,0,0,0,10.55,1c.64-.87,1-1.93,2.18-2.43,2.72-1.17,5.4-2.45,8.1-3.67,1.5-.67,3-1.29,4.53-2,1.77-.78,3.51-1.62,5.28-2.41,3.24-1.44,6.49-2.86,9.73-4.29.77-.34,1.54-.68,2.29-1,2.19-1,4.35-2.14,6.56-3.12C232.45,111.22,234.44,110.47,236.52,109.56Z" transform="translate(-9.12 -50.32)"/><path d="M247.67,233.55c-.51-1.12-1-2.19-1.42-3.26-1-2.46-2.08-4.93-3.14-7.39s-2.09-4.78-3.14-7.17c-.36-.83-.69-1.67-1.05-2.5s-.66-1.4-.9-2.13a1.1,1.1,0,0,1,.15-1,1,1,0,0,1,.91-.07c1.18.51,2.32,1.13,3.51,1.64s2.48.91,3.7,1.42c2.32,1,4.62,2,6.94,3,1.87.79,3.75,1.56,5.63,2.34l2.06.84,7.68,3.19c3.15,1.31,6.31,2.61,9.46,3.93,1.46.61,2.89,1.29,4.34,1.91,1.9.81,3.82,1.57,5.71,2.38s3.48,1.55,5.23,2.28c2.39,1,4.8,1.89,7.2,2.85.8.33,1.58.72,2.38,1.08l3.61,1.64c1.74.77,3.46,1.57,5.22,2.29s3.33,1.23,5,1.91,3.24,1.44,4.87,2.15c1,.44,2.09.83,3.14,1.26,1.31.54,2.62,1.07,3.93,1.63,2.46,1.05,4.91,2.13,7.37,3.17.89.38,1.82.67,2.71,1,1.72.73,3.42,1.51,5.14,2.23s3.54,1.41,5.29,2.14c.84.35,1.61.83,2.45,1.17,2.66,1.08,5.33,2.13,8,3.19.9.36,1.81.68,2.7,1.06.15.06.35.34.32.46a1,1,0,0,1-.44.56c-1.14.52-2.3,1-3.47,1.47-.78.31-1.6.52-2.37.86-1.72.74-3.4,1.56-5.12,2.29-2.37,1-4.77,1.95-7.16,2.93-1.67.69-3.33,1.4-5,2.11-3.08,1.32-6.16,2.63-9.24,4-1,.45-2,1-3.07,1.42-.74.33-1.51.58-2.26.87-2.31.91-4.7,1.66-6.91,2.76-3.36,1.68-6.9,2.9-10.34,4.37-1.63.69-3.23,1.45-4.86,2.14-1,.44-2.12.79-3.17,1.21-.6.24-1.16.56-1.75.83-1.74.77-3.47,1.55-5.22,2.3s-3.33,1.4-5,2.09l-6.89,2.83c-1.84.77-3.67,1.58-5.51,2.37-1.66.71-3.31,1.44-5,2.13-1.1.45-2.24.83-3.35,1.26-.66.26-1.31.55-2,.84-2.38,1.05-4.76,2.13-7.16,3.16-1.6.68-3.25,1.27-4.85,1.94-1.87.79-3.71,1.65-5.59,2.43-2.26.94-4.56,1.8-6.82,2.73-.57.24-1.06.65-1.62.89s-.92-.19-.71-.73c.4-1,.87-2,1.3-3,.78-1.81,1.52-3.62,2.31-5.43.52-1.18,1.13-2.32,1.62-3.51.64-1.55,1.16-3.15,1.8-4.7.92-2.2,1.93-4.36,2.85-6.57.81-2,1.51-4,2.34-5.93.41-1,1.07-1.86,1.52-2.83s.76-2.06,1.18-3.07.93-2,1.32-3a.94.94,0,0,0-.34-.8c-.17-.13-.53,0-.81,0q-66.93,0-133.87,0c-1.55,0-1.6.36-1.11,1.59.89,2.28,1.87,4.53,2.8,6.8.68,1.63,1.31,3.29,2,4.92s1.6,3.52,2.35,5.31,1.33,3.42,2,5.12c.46,1.1,1,2.15,1.51,3.24.64,1.48,1.2,3,1.84,4.48s1.29,2.88,1.95,4.32c.48,1.05,1,2.1,1.48,3.15.26.56.1.87-.51.85a1.79,1.79,0,0,1-.95-.23c-1.81-1.32-4-1.83-6-2.69s-4.3-1.94-6.47-2.83c-1.91-.79-3.87-1.45-5.79-2.21-.72-.28-1.36-.74-2.07-1.06-1.59-.71-3.2-1.38-4.8-2.06-2-.84-3.9-1.69-5.86-2.51-2.38-1-4.78-2-7.16-2.94-1.13-.48-2.22-1-3.35-1.52-1.63-.69-3.29-1.33-4.93-2l-3.65-1.55c-1.93-.82-3.86-1.62-5.79-2.45s-4-1.82-6-2.65c-1.76-.72-3.58-1.27-5.35-2-1.1-.44-2.12-1.09-3.22-1.56-2.58-1.11-5.17-2.17-7.77-3.23-1.76-.72-3.55-1.37-5.3-2.11-1.55-.65-3-1.41-4.59-2.06-1.75-.74-3.54-1.4-5.3-2.12-1.1-.46-2.18-1-3.27-1.46-2-.89-4-1.79-6-2.64-1.58-.66-3.19-1.22-4.77-1.87-2.42-1-4.82-2-7.23-3l-7.14-3a1,1,0,0,1-.24-.18c-.42-.33-.84-.66-1.25-1,.46-.22.92-.46,1.39-.67,1.45-.64,2.88-1.3,4.34-1.91,1.25-.53,2.54-.95,3.78-1.5,1.71-.75,3.38-1.6,5.1-2.35,1.47-.64,3-1.16,4.49-1.79,1.21-.51,2.38-1.14,3.6-1.66s2.52-1,3.79-1.47c1.8-.7,3.61-1.37,5.39-2.13,1.25-.53,2.42-1.24,3.68-1.75,1.61-.65,3.41-1,4.87-1.85,2.22-1.35,4.69-2,7-3.08,3.7-1.68,7.52-3.08,11.27-4.64,1.7-.71,3.33-1.56,5-2.27s3.2-1.21,4.78-1.87c1.78-.75,3.52-1.59,5.3-2.36,2.28-1,4.58-1.9,6.87-2.87l5.33-2.3c1.48-.63,3-1.27,4.45-1.88,1.76-.72,3.53-1.42,5.3-2.13,1.16-.47,2.33-.94,3.48-1.44,1-.43,1.92-.92,2.89-1.37s1.71-.76,2.57-1.11l7-2.81c2.72-1.11,5.44-2.2,8.14-3.34,1.43-.6,2.82-1.29,4.24-1.9.21-.09.52.06.78.1a4.41,4.41,0,0,1-.16.72c-.47,1.13-.95,2.25-1.45,3.38-.64,1.47-1.3,2.94-2,4.42q-1.23,2.79-2.44,5.58c-.77,1.78-1.56,3.55-2.29,5.33-.4,1-.69,1.95-1.07,2.91-.28.72-.63,1.41-.93,2.13-1.16,2.73-2.28,5.47-3.47,8.19-.68,1.57-1.49,3.08-2.23,4.62a3.36,3.36,0,0,0-.26.94c-.16,1.17,0,1.29,1.16,1.32,1.51,0,3,.19,4.52.19,1.34,0,2.69-.16,4-.18.77,0,1.55.19,2.32.19H250.33c1.09,0,2.17-.12,3.26-.21.8-.06.44-.71.33-1-.91-2.23-1.91-4.44-2.86-6.66s-1.95-4.64-2.92-7C248,234.41,247.86,234,247.67,233.55Z" transform="translate(-9.12 -50.32)"/></g></svg>